<svg xmlns="http://www.w3.org/2000/svg" xmlns:xlink="http://www.w3.org/1999/xlink" width="500" zoomAndPan="magnify" viewBox="0 0 375 374.999991" height="500" preserveAspectRatio="xMidYMid meet" version="1.0"><defs><g/><clipPath id="id1"><path d="M 75.03125 75.03125 L 300.03125 75.03125 L 300.03125 300.03125 L 75.03125 300.03125 Z M 75.03125 75.03125 " clip-rule="nonzero"/></clipPath><clipPath id="id2"><path d="M 161 152 L 214 152 L 214 161.6875 L 161 161.6875 Z M 161 152 " clip-rule="nonzero"/></clipPath><clipPath id="id3"><path d="M 157.359375 118.9375 L 217.359375 118.9375 L 217.359375 159 L 157.359375 159 Z M 157.359375 118.9375 " clip-rule="nonzero"/></clipPath></defs><g clip-path="url(#id1)"><path fill="#19191e" d="M 293.070312 217.527344 C 290.21875 227.238281 285.863281 236.453125 280.457031 244.9375 C 275.996094 251.84375 270.921875 258.332031 265.222656 264.238281 C 264.484375 265.042969 263.660156 265.765625 262.878906 266.527344 C 262.082031 267.273438 261.308594 268.046875 260.496094 268.773438 L 258.023438 270.925781 L 256.789062 272 L 255.507812 273.019531 L 252.949219 275.0625 C 252.082031 275.726562 251.1875 276.351562 250.308594 277.003906 C 248.570312 278.332031 246.726562 279.5 244.917969 280.730469 C 244.65625 280.90625 244.382812 281.089844 244.097656 281.28125 C 243.800781 281.457031 243.496094 281.640625 243.175781 281.832031 C 242.539062 282.214844 241.851562 282.625 241.121094 283.0625 C 239.675781 283.96875 237.96875 284.824219 236.121094 285.804688 C 235.65625 286.042969 235.191406 286.304688 234.703125 286.539062 C 234.207031 286.769531 233.707031 287.003906 233.191406 287.242188 C 232.167969 287.714844 231.105469 288.207031 230.007812 288.714844 C 227.761719 289.59375 225.417969 290.648438 222.859375 291.464844 C 212.765625 295.125 200.171875 297.386719 187.53125 297.441406 C 174.890625 297.386719 162.296875 295.125 152.203125 291.464844 C 149.644531 290.648438 147.304688 289.59375 145.054688 288.714844 C 143.957031 288.207031 142.894531 287.714844 141.871094 287.242188 C 141.359375 287.003906 140.855469 286.769531 140.359375 286.542969 C 139.871094 286.308594 139.40625 286.042969 138.941406 285.804688 C 137.097656 284.824219 135.386719 283.96875 133.941406 283.0625 C 133.210938 282.625 132.523438 282.214844 131.886719 281.832031 C 131.570312 281.640625 131.261719 281.457031 130.96875 281.28125 C 130.679688 281.089844 130.40625 280.90625 130.148438 280.730469 C 123.28125 276.230469 116.828125 271.117188 110.964844 265.375 C 104.78125 259.199219 99.371094 252.277344 94.605469 244.9375 C 89.199219 236.453125 84.84375 227.238281 81.992188 217.527344 C 79.019531 207.847656 77.648438 197.691406 77.558594 187.53125 C 77.648438 177.371094 79.019531 167.214844 81.992188 157.535156 C 84.84375 147.824219 89.199219 138.609375 94.605469 130.125 C 99.066406 123.21875 104.140625 116.730469 109.839844 110.824219 C 110.578125 110.019531 111.402344 109.296875 112.183594 108.535156 C 112.980469 107.789062 113.753906 107.015625 114.566406 106.289062 L 117.039062 104.136719 L 118.273438 103.0625 L 119.554688 102.042969 L 122.113281 100 C 122.980469 99.335938 123.875 98.710938 124.753906 98.058594 C 126.492188 96.730469 128.335938 95.5625 130.144531 94.332031 C 130.40625 94.15625 130.679688 93.972656 130.964844 93.78125 C 131.261719 93.605469 131.566406 93.421875 131.886719 93.230469 C 132.523438 92.847656 133.210938 92.4375 133.941406 92 C 135.386719 91.09375 137.09375 90.238281 138.941406 89.257812 C 139.40625 89.019531 139.871094 88.757812 140.359375 88.523438 C 140.855469 88.292969 141.355469 88.058594 141.871094 87.820312 C 142.894531 87.347656 143.957031 86.855469 145.054688 86.347656 C 147.300781 85.46875 149.644531 84.414062 152.203125 83.597656 C 162.296875 79.9375 174.890625 77.675781 187.53125 77.621094 C 200.171875 77.675781 212.765625 79.9375 222.859375 83.597656 C 225.417969 84.414062 227.757812 85.46875 230.007812 86.347656 C 231.105469 86.855469 232.167969 87.347656 233.191406 87.820312 C 233.703125 88.058594 234.207031 88.292969 234.703125 88.519531 C 235.191406 88.753906 235.65625 89.019531 236.121094 89.257812 C 237.964844 90.238281 239.675781 91.09375 241.121094 92 C 241.851562 92.4375 242.539062 92.847656 243.175781 93.230469 C 243.492188 93.421875 243.800781 93.605469 244.09375 93.78125 C 244.382812 93.972656 244.65625 94.15625 244.914062 94.332031 C 251.78125 98.832031 258.234375 103.945312 264.097656 109.6875 C 270.28125 115.863281 275.691406 122.785156 280.457031 130.125 C 285.863281 138.609375 290.21875 147.824219 293.070312 157.535156 C 296.039062 167.214844 297.414062 177.371094 297.503906 187.53125 C 297.414062 197.691406 296.039062 207.847656 293.070312 217.527344 Z M 300.03125 187.457031 L 300.027344 187.449219 C 299.9375 177.074219 298.542969 166.695312 295.519531 156.796875 C 292.613281 146.871094 288.160156 137.449219 282.609375 128.792969 L 279.945312 124.785156 C 279.945312 124.785156 279.171875 123.707031 278.015625 122.089844 C 276.902344 120.4375 275.199219 118.402344 273.570312 116.3125 C 271.816406 114.324219 270.136719 112.273438 268.722656 110.875 C 267.347656 109.441406 266.429688 108.484375 266.429688 108.484375 C 266.429688 108.484375 266.199219 108.25 265.78125 107.847656 C 265.363281 107.445312 264.769531 106.871094 264.054688 106.179688 C 262.664062 104.761719 260.640625 103.050781 258.65625 101.296875 C 257.636719 100.449219 256.589844 99.636719 255.621094 98.859375 C 255.136719 98.472656 254.667969 98.101562 254.21875 97.746094 C 253.757812 97.414062 253.324219 97.097656 252.917969 96.808594 C 251.308594 95.644531 250.234375 94.871094 250.234375 94.871094 C 250.234375 94.871094 250 94.679688 249.621094 94.433594 C 249.246094 94.183594 248.746094 93.851562 248.25 93.515625 C 247.25 92.847656 246.25 92.175781 246.25 92.175781 C 245.984375 91.996094 245.703125 91.808594 245.410156 91.613281 C 245.109375 91.429688 244.796875 91.238281 244.472656 91.042969 C 243.820312 90.648438 243.117188 90.230469 242.371094 89.78125 C 240.894531 88.851562 239.148438 87.972656 237.257812 86.964844 C 236.785156 86.71875 236.308594 86.453125 235.808594 86.210938 C 235.300781 85.976562 234.789062 85.734375 234.265625 85.492188 C 233.214844 85.003906 232.125 84.5 231.003906 83.980469 C 228.707031 83.078125 226.304688 82 223.691406 81.15625 C 213.363281 77.40625 200.464844 75.082031 187.53125 75.03125 C 174.597656 75.082031 161.699219 77.40625 151.371094 81.160156 C 148.757812 82 146.355469 83.078125 144.054688 83.984375 C 142.933594 84.5 141.847656 85.003906 140.796875 85.492188 C 140.273438 85.738281 139.757812 85.976562 139.253906 86.210938 C 138.753906 86.453125 138.277344 86.71875 137.800781 86.964844 C 135.914062 87.972656 134.167969 88.851562 132.691406 89.78125 C 131.945312 90.230469 131.242188 90.652344 130.589844 91.042969 C 130.265625 91.238281 129.949219 91.429688 129.652344 91.613281 C 129.359375 91.808594 129.078125 91.996094 128.8125 92.175781 C 128.8125 92.175781 127.8125 92.847656 126.8125 93.515625 C 126.3125 93.851562 125.8125 94.183594 125.441406 94.433594 C 125.0625 94.679688 124.828125 94.871094 124.828125 94.871094 C 124.828125 94.871094 123.753906 95.644531 122.144531 96.808594 C 121.738281 97.097656 121.304688 97.414062 120.84375 97.746094 C 120.394531 98.101562 119.925781 98.472656 119.441406 98.859375 C 118.472656 99.636719 117.425781 100.449219 116.40625 101.296875 C 114.421875 103.050781 112.398438 104.761719 111.007812 106.179688 C 110.292969 106.871094 109.699219 107.445312 109.28125 107.847656 C 108.863281 108.25 108.632812 108.484375 108.632812 108.484375 C 108.632812 108.484375 107.714844 109.441406 106.339844 110.875 C 104.925781 112.273438 103.246094 114.324219 101.492188 116.3125 C 99.863281 118.402344 98.160156 120.4375 97.046875 122.089844 C 95.890625 123.707031 95.117188 124.785156 95.117188 124.785156 L 92.449219 128.792969 C 86.902344 137.449219 82.449219 146.871094 79.542969 156.796875 C 76.519531 166.695312 75.125 177.074219 75.035156 187.449219 L 75.03125 187.457031 L 75.03125 187.605469 L 75.035156 187.613281 C 75.125 197.988281 76.519531 208.367188 79.542969 218.265625 C 82.449219 228.191406 86.902344 237.613281 92.449219 246.269531 L 95.117188 250.277344 C 95.117188 250.277344 95.890625 251.355469 97.046875 252.972656 C 98.160156 254.625 99.863281 256.660156 101.492188 258.75 C 103.246094 260.738281 104.925781 262.789062 106.339844 264.1875 C 107.714844 265.621094 108.632812 266.578125 108.632812 266.578125 C 108.632812 266.578125 108.863281 266.8125 109.28125 267.214844 C 109.699219 267.617188 110.292969 268.191406 111.007812 268.882812 C 112.398438 270.300781 114.421875 272.011719 116.40625 273.765625 C 117.425781 274.613281 118.472656 275.425781 119.441406 276.203125 C 119.925781 276.589844 120.394531 276.960938 120.84375 277.316406 C 121.304688 277.648438 121.738281 277.964844 122.144531 278.253906 C 123.753906 279.417969 124.828125 280.191406 124.828125 280.191406 C 124.828125 280.191406 125.0625 280.382812 125.441406 280.628906 C 125.816406 280.878906 126.316406 281.210938 126.8125 281.546875 C 127.8125 282.214844 128.8125 282.886719 128.8125 282.886719 C 129.078125 283.066406 129.359375 283.253906 129.652344 283.449219 C 129.953125 283.632812 130.265625 283.824219 130.589844 284.019531 C 131.242188 284.414062 131.945312 284.832031 132.691406 285.28125 C 134.167969 286.210938 135.914062 287.089844 137.800781 288.097656 C 138.277344 288.34375 138.753906 288.609375 139.253906 288.851562 C 139.761719 289.085938 140.273438 289.328125 140.796875 289.570312 C 141.847656 290.058594 142.933594 290.5625 144.058594 291.082031 C 146.355469 291.984375 148.757812 293.0625 151.371094 293.90625 C 161.699219 297.65625 174.597656 299.980469 187.53125 300.03125 C 200.464844 299.980469 213.363281 297.65625 223.691406 293.902344 C 226.304688 293.0625 228.707031 291.984375 231.007812 291.078125 C 232.128906 290.5625 233.214844 290.058594 234.265625 289.570312 C 234.789062 289.324219 235.304688 289.085938 235.808594 288.851562 C 236.308594 288.609375 236.785156 288.34375 237.261719 288.097656 C 239.148438 287.089844 240.894531 286.210938 242.371094 285.28125 C 243.117188 284.832031 243.820312 284.410156 244.472656 284.019531 C 244.796875 283.824219 245.113281 283.632812 245.410156 283.449219 C 245.703125 283.253906 245.984375 283.066406 246.25 282.886719 C 246.25 282.886719 247.25 282.214844 248.25 281.546875 C 248.75 281.210938 249.246094 280.878906 249.621094 280.628906 C 250 280.382812 250.234375 280.191406 250.234375 280.191406 C 250.234375 280.191406 251.308594 279.417969 252.917969 278.253906 C 253.324219 277.964844 253.757812 277.648438 254.21875 277.316406 C 254.667969 276.960938 255.136719 276.589844 255.621094 276.203125 C 256.589844 275.425781 257.636719 274.613281 258.65625 273.765625 C 260.640625 272.011719 262.664062 270.300781 264.054688 268.882812 C 264.769531 268.191406 265.363281 267.617188 265.78125 267.214844 C 266.199219 266.8125 266.429688 266.578125 266.429688 266.578125 C 266.429688 266.578125 267.347656 265.621094 268.722656 264.1875 C 270.136719 262.789062 271.816406 260.738281 273.570312 258.75 C 275.199219 256.660156 276.902344 254.625 278.015625 252.972656 C 279.171875 251.355469 279.945312 250.277344 279.945312 250.277344 L 282.609375 246.269531 C 288.160156 237.613281 292.613281 228.191406 295.519531 218.265625 C 298.542969 208.367188 299.9375 197.988281 300.027344 187.613281 L 300.03125 187.605469 L 300.03125 187.457031 " fill-opacity="1" fill-rule="nonzero"/></g><g fill="#19191e" fill-opacity="1"><g transform="translate(123.592671, 135.949016)"><g><path d="M -1.121094 -8.269531 L 0.328125 -7.152344 L 1.78125 -9.046875 C 2.675781 -8.191406 3.101562 -6.945312 2.082031 -5.617188 C 0.855469 -4.019531 -0.847656 -4.382812 -2.421875 -5.59375 C -4.085938 -6.871094 -4.765625 -8.472656 -3.585938 -10.011719 C -2.835938 -10.984375 -1.847656 -11.242188 -0.703125 -10.847656 L 0.0351562 -12.890625 C -1.675781 -13.515625 -3.652344 -13.105469 -5.128906 -11.183594 C -7.089844 -8.632812 -6.589844 -5.828125 -3.796875 -3.683594 C -1.09375 -1.605469 1.660156 -1.742188 3.503906 -4.144531 C 4.324219 -5.214844 4.621094 -6.453125 4.183594 -7.539062 L 5.199219 -6.769531 L 6.375 -8.300781 L 1.675781 -11.910156 Z M -1.121094 -8.269531 "/></g></g></g><g fill="#19191e" fill-opacity="1"><g transform="translate(132.760562, 124.534223)"><g><path d="M 4.398438 -3.550781 C 6.722656 -5.605469 6.917969 -8.335938 4.507812 -11.066406 C 2.09375 -13.796875 -0.644531 -13.933594 -2.964844 -11.882812 C -5.304688 -9.816406 -5.460938 -7.117188 -3.046875 -4.386719 C -0.636719 -1.660156 2.0625 -1.484375 4.398438 -3.550781 Z M 3.085938 -5.035156 C 1.722656 -3.832031 0.160156 -4.246094 -1.316406 -5.917969 C -2.792969 -7.589844 -3.011719 -9.191406 -1.652344 -10.394531 C -0.300781 -11.589844 1.296875 -11.207031 2.773438 -9.535156 C 4.253906 -7.863281 4.4375 -6.230469 3.085938 -5.035156 Z M 3.085938 -5.035156 "/></g></g></g><g fill="#19191e" fill-opacity="1"><g transform="translate(143.9171, 115.094575)"><g><path d="M 4.996094 -2.648438 C 7.667969 -4.21875 8.382812 -6.867188 6.53125 -10.003906 C 4.683594 -13.144531 2.023438 -13.800781 -0.648438 -12.230469 C -3.335938 -10.644531 -4.003906 -8.027344 -2.15625 -4.886719 C -0.308594 -1.75 2.304688 -1.0625 4.996094 -2.648438 Z M 3.988281 -4.355469 C 2.421875 -3.433594 0.96875 -4.136719 -0.164062 -6.0625 C -1.296875 -7.984375 -1.207031 -9.597656 0.359375 -10.519531 C 1.914062 -11.433594 3.40625 -10.753906 4.539062 -8.832031 C 5.671875 -6.90625 5.542969 -5.273438 3.988281 -4.355469 Z M 3.988281 -4.355469 "/></g></g></g><g fill="#19191e" fill-opacity="1"><g transform="translate(156.669931, 107.955298)"><g><path d="M 1.183594 -0.417969 L 5.015625 -1.777344 C 8.472656 -3.003906 9.40625 -5.363281 8.285156 -8.527344 C 7.167969 -11.679688 5 -13.03125 1.480469 -11.785156 L -2.363281 -10.421875 Z M 2.710938 -3.074219 L 0.492188 -9.328125 L 2.117188 -9.90625 C 4.246094 -10.660156 5.394531 -9.785156 6.089844 -7.816406 C 6.8125 -5.785156 6.402344 -4.382812 4.179688 -3.59375 Z M 2.710938 -3.074219 "/></g></g></g><g fill="#19191e" fill-opacity="1"><g transform="translate(177.849296, 102.097246)"><g><path d="M 8.742188 -2.835938 C 9.253906 -3.785156 9.546875 -4.953125 9.558594 -6.273438 L 7.636719 -6.167969 C 7.671875 -5.5 7.589844 -4.875 7.40625 -4.324219 L 5.613281 -6.324219 C 7.015625 -7.265625 7.570312 -8.046875 7.519531 -8.980469 C 7.453125 -10.242188 6.328125 -11.117188 4.53125 -11.023438 C 2.824219 -10.933594 1.761719 -10.019531 1.832031 -8.683594 C 1.867188 -8.0625 2.171875 -7.484375 2.910156 -6.640625 L 2.996094 -6.542969 C 1.292969 -5.355469 0.347656 -4.554688 0.429688 -3.019531 C 0.535156 -0.980469 2.238281 0.0351562 4.40625 -0.0820312 C 5.652344 -0.148438 6.742188 -0.601562 7.589844 -1.355469 L 8.394531 -0.449219 L 10.578125 -0.5625 L 10.566406 -0.804688 Z M 4.671875 -9.671875 C 5.230469 -9.695312 5.65625 -9.390625 5.679688 -8.917969 C 5.707031 -8.457031 5.351562 -7.960938 4.59375 -7.453125 L 4.417969 -7.652344 C 3.984375 -8.136719 3.792969 -8.421875 3.773438 -8.792969 C 3.75 -9.28125 4.070312 -9.640625 4.671875 -9.671875 Z M 4.308594 -1.789062 C 3.179688 -1.730469 2.40625 -2.183594 2.355469 -3.15625 C 2.304688 -4.117188 3.097656 -4.636719 4.078125 -5.324219 L 6.410156 -2.691406 C 5.847656 -2.160156 5.128906 -1.832031 4.308594 -1.789062 Z M 4.308594 -1.789062 "/></g></g></g><g fill="#19191e" fill-opacity="1"><g transform="translate(199.656238, 102.541183)"><g><path d="M 3.359375 0.757812 L 5.625 1.265625 L 7.527344 -7.167969 L 10.628906 -6.46875 L 11.0625 -8.386719 L 2.597656 -10.292969 L 2.167969 -8.375 L 5.257812 -7.679688 Z M 3.359375 0.757812 "/></g></g></g><g fill="#19191e" fill-opacity="1"><g transform="translate(211.883785, 105.509486)"><g><path d="M 7.933594 3.355469 L 10.246094 4.335938 L 10.777344 -6.964844 L 7.914062 -8.175781 L 0.171875 0.0742188 L 2.488281 1.050781 L 4.082031 -0.726562 L 8.097656 0.976562 Z M 5.398438 -2.191406 L 8.488281 -5.632812 L 8.546875 -5.605469 L 8.230469 -0.996094 Z M 5.398438 -2.191406 "/></g></g></g><g fill="#19191e" fill-opacity="1"><g transform="translate(225.231313, 111.575628)"><g><path d="M 3.90625 2.832031 C 6.027344 4.222656 8.089844 3.984375 9.3125 2.117188 C 10.398438 0.457031 9.699219 -1.042969 8.398438 -2.292969 L 7.378906 -3.273438 C 6.5625 -4.046875 6.539062 -4.511719 6.855469 -4.996094 C 7.269531 -5.628906 7.925781 -5.578125 8.589844 -5.140625 C 9.410156 -4.601562 10.136719 -3.527344 10.316406 -2.511719 L 12.230469 -3.183594 C 11.839844 -4.640625 10.925781 -5.828125 9.675781 -6.652344 C 7.878906 -7.828125 6.042969 -7.816406 4.84375 -5.988281 C 3.84375 -4.464844 4.367188 -3.066406 5.5625 -1.914062 L 6.796875 -0.722656 C 7.558594 -0.0078125 7.628906 0.503906 7.253906 1.078125 C 6.71875 1.894531 5.921875 1.78125 5.082031 1.230469 C 4.097656 0.585938 3.507812 -0.367188 3.308594 -1.746094 L 1.289062 -1.152344 C 1.4375 0.351562 2.363281 1.820312 3.90625 2.832031 Z M 3.90625 2.832031 "/></g></g></g><g fill="#19191e" fill-opacity="1"><g transform="translate(235.792369, 118.848498)"><g><path d="M 2.523438 2.339844 L 4.230469 3.921875 L 10.109375 -2.421875 L 12.441406 -0.261719 L 13.777344 -1.703125 L 7.414062 -7.597656 L 6.078125 -6.15625 L 8.402344 -4.003906 Z M 2.523438 2.339844 "/></g></g></g><g fill="#19191e" fill-opacity="1"><g transform="translate(244.871554, 127.590948)"><g><path d="M 2.46875 3.25 L 3.882812 5.109375 L 7.167969 2.609375 L 14.738281 1.855469 L 13.152344 -0.230469 L 8.109375 0.488281 L 10.097656 -4.253906 L 8.511719 -6.339844 L 5.757812 0.753906 Z M 2.46875 3.25 "/></g></g></g><g fill="#19191e" fill-opacity="1"><g transform="translate(107.064053, 213.293114)"><g><path d="M 2.5 -32.984375 L 2.5 -35.984375 L 16.984375 -35.984375 C 17.890625 -35.984375 18.734375 -35.816406 19.515625 -35.484375 C 20.296875 -35.148438 20.984375 -34.679688 21.578125 -34.078125 C 22.179688 -33.472656 22.648438 -32.78125 22.984375 -32 C 23.316406 -31.21875 23.484375 -30.378906 23.484375 -29.484375 L 23.484375 -22.984375 C 23.484375 -22.117188 23.316406 -21.296875 22.984375 -20.515625 C 22.648438 -19.734375 22.1875 -19.023438 21.59375 -18.390625 C 22.488281 -17.785156 23.191406 -17.007812 23.703125 -16.0625 C 24.222656 -15.113281 24.484375 -14.085938 24.484375 -12.984375 L 24.484375 -6.5 C 24.484375 -5.59375 24.316406 -4.75 23.984375 -3.96875 C 23.648438 -3.1875 23.179688 -2.492188 22.578125 -1.890625 C 21.984375 -1.296875 21.296875 -0.832031 20.515625 -0.5 C 19.734375 -0.164062 18.890625 0 17.984375 0 L 2.5 0 L 2.5 -3 L 4.5 -3 L 4.5 -32.984375 Z M 17.984375 -3 C 18.953125 -3 19.773438 -3.335938 20.453125 -4.015625 C 21.140625 -4.703125 21.484375 -5.53125 21.484375 -6.5 L 21.484375 -12.984375 C 21.484375 -13.953125 21.140625 -14.773438 20.453125 -15.453125 C 19.773438 -16.140625 18.953125 -16.484375 17.984375 -16.484375 L 7.5 -16.484375 L 7.5 -3 Z M 20.484375 -29.484375 C 20.484375 -30.453125 20.140625 -31.273438 19.453125 -31.953125 C 18.773438 -32.640625 17.953125 -32.984375 16.984375 -32.984375 L 7.5 -32.984375 L 7.5 -19.484375 L 16.984375 -19.484375 C 17.953125 -19.484375 18.773438 -19.820312 19.453125 -20.5 C 20.140625 -21.1875 20.484375 -22.015625 20.484375 -22.984375 Z M 20.484375 -29.484375 "/></g></g></g><g fill="#19191e" fill-opacity="1"><g transform="translate(134.044092, 213.293114)"><g><path d="M 7.5 -6.5 C 7.5 -5.53125 7.835938 -4.703125 8.515625 -4.015625 C 9.203125 -3.335938 10.03125 -3 11 -3 L 17.984375 -3 C 18.953125 -3 19.773438 -3.335938 20.453125 -4.015625 C 21.140625 -4.703125 21.484375 -5.53125 21.484375 -6.5 L 21.484375 -32.984375 L 19.484375 -32.984375 L 19.484375 -35.984375 L 26.484375 -35.984375 L 26.484375 -32.984375 L 24.484375 -32.984375 L 24.484375 -6.5 C 24.484375 -5.59375 24.316406 -4.75 23.984375 -3.96875 C 23.648438 -3.1875 23.179688 -2.492188 22.578125 -1.890625 C 21.984375 -1.296875 21.296875 -0.832031 20.515625 -0.5 C 19.734375 -0.164062 18.890625 0 17.984375 0 L 11 0 C 10.09375 0 9.25 -0.164062 8.46875 -0.5 C 7.6875 -0.832031 6.992188 -1.296875 6.390625 -1.890625 C 5.796875 -2.492188 5.332031 -3.1875 5 -3.96875 C 4.664062 -4.75 4.5 -5.59375 4.5 -6.5 L 4.5 -32.984375 L 2.5 -32.984375 L 2.5 -35.984375 L 9.5 -35.984375 L 9.5 -32.984375 L 7.5 -32.984375 Z M 7.5 -6.5 "/></g></g></g><g fill="#19191e" fill-opacity="1"><g transform="translate(163.022651, 213.293114)"><g><path d="M 12.640625 -16.484375 L 7.5 -16.484375 L 7.5 -3 L 9.5 -3 L 9.5 0 L 2.5 0 L 2.5 -3 L 4.5 -3 L 4.5 -32.984375 L 2.5 -32.984375 L 2.5 -35.984375 L 16.984375 -35.984375 C 17.890625 -35.984375 18.734375 -35.816406 19.515625 -35.484375 C 20.296875 -35.148438 20.984375 -34.679688 21.578125 -34.078125 C 22.179688 -33.472656 22.648438 -32.78125 22.984375 -32 C 23.316406 -31.21875 23.484375 -30.378906 23.484375 -29.484375 L 23.484375 -22.984375 C 23.484375 -22.085938 23.316406 -21.242188 22.984375 -20.453125 C 22.648438 -19.671875 22.179688 -18.976562 21.578125 -18.375 C 20.984375 -17.78125 20.296875 -17.316406 19.515625 -16.984375 C 18.734375 -16.648438 17.890625 -16.484375 16.984375 -16.484375 L 16.046875 -16.484375 L 23.234375 -3 L 25.484375 -3 L 25.484375 0 L 18.484375 0 L 18.484375 -3 L 19.84375 -3 Z M 7.5 -19.484375 L 16.984375 -19.484375 C 17.953125 -19.484375 18.773438 -19.820312 19.453125 -20.5 C 20.140625 -21.1875 20.484375 -22.015625 20.484375 -22.984375 L 20.484375 -29.484375 C 20.484375 -30.453125 20.140625 -31.273438 19.453125 -31.953125 C 18.773438 -32.640625 17.953125 -32.984375 16.984375 -32.984375 L 7.5 -32.984375 Z M 7.5 -19.484375 "/></g></g></g><g fill="#19191e" fill-opacity="1"><g transform="translate(191.00195, 213.293114)"><g><path d="M 9 0 C 8.09375 0 7.25 -0.164062 6.46875 -0.5 C 5.6875 -0.832031 4.992188 -1.296875 4.390625 -1.890625 C 3.796875 -2.492188 3.332031 -3.1875 3 -3.96875 C 2.664062 -4.75 2.5 -5.59375 2.5 -6.5 L 2.5 -29.484375 C 2.5 -30.378906 2.664062 -31.21875 3 -32 C 3.332031 -32.78125 3.796875 -33.472656 4.390625 -34.078125 C 4.992188 -34.679688 5.6875 -35.148438 6.46875 -35.484375 C 7.25 -35.816406 8.09375 -35.984375 9 -35.984375 L 15.984375 -35.984375 C 16.890625 -35.984375 17.734375 -35.816406 18.515625 -35.484375 C 19.296875 -35.148438 19.984375 -34.679688 20.578125 -34.078125 C 21.179688 -33.472656 21.648438 -32.78125 21.984375 -32 C 22.316406 -31.21875 22.484375 -30.378906 22.484375 -29.484375 L 22.484375 -27.484375 L 19.484375 -27.484375 L 19.484375 -29.484375 C 19.484375 -30.453125 19.140625 -31.273438 18.453125 -31.953125 C 17.773438 -32.640625 16.953125 -32.984375 15.984375 -32.984375 L 9 -32.984375 C 8.03125 -32.984375 7.203125 -32.640625 6.515625 -31.953125 C 5.835938 -31.273438 5.5 -30.453125 5.5 -29.484375 L 5.5 -6.5 C 5.5 -5.53125 5.835938 -4.703125 6.515625 -4.015625 C 7.203125 -3.335938 8.03125 -3 9 -3 L 15.984375 -3 C 16.953125 -3 17.773438 -3.335938 18.453125 -4.015625 C 19.140625 -4.703125 19.484375 -5.53125 19.484375 -6.5 L 19.484375 -16.484375 L 12.484375 -16.484375 L 12.484375 -19.484375 L 22.484375 -19.484375 L 22.484375 -6.5 C 22.484375 -5.59375 22.316406 -4.75 21.984375 -3.96875 C 21.648438 -3.1875 21.179688 -2.492188 20.578125 -1.890625 C 19.984375 -1.296875 19.296875 -0.832031 18.515625 -0.5 C 17.734375 -0.164062 16.890625 0 15.984375 0 Z M 9 0 "/></g></g></g><g fill="#19191e" fill-opacity="1"><g transform="translate(215.98347, 213.293114)"><g><path d="M 4.5 -32.984375 L 2.5 -32.984375 L 2.5 -35.984375 L 21.484375 -35.984375 L 21.484375 -30.984375 L 18.484375 -30.984375 L 18.484375 -32.984375 L 7.5 -32.984375 L 7.5 -19.484375 L 18.484375 -19.484375 L 18.484375 -16.484375 L 7.5 -16.484375 L 7.5 -3 L 18.484375 -3 L 18.484375 -5 L 21.484375 -5 L 21.484375 0 L 2.5 0 L 2.5 -3 L 4.5 -3 Z M 4.5 -32.984375 "/></g></g></g><g fill="#19191e" fill-opacity="1"><g transform="translate(239.96573, 213.293114)"><g><path d="M 12.640625 -16.484375 L 7.5 -16.484375 L 7.5 -3 L 9.5 -3 L 9.5 0 L 2.5 0 L 2.5 -3 L 4.5 -3 L 4.5 -32.984375 L 2.5 -32.984375 L 2.5 -35.984375 L 16.984375 -35.984375 C 17.890625 -35.984375 18.734375 -35.816406 19.515625 -35.484375 C 20.296875 -35.148438 20.984375 -34.679688 21.578125 -34.078125 C 22.179688 -33.472656 22.648438 -32.78125 22.984375 -32 C 23.316406 -31.21875 23.484375 -30.378906 23.484375 -29.484375 L 23.484375 -22.984375 C 23.484375 -22.085938 23.316406 -21.242188 22.984375 -20.453125 C 22.648438 -19.671875 22.179688 -18.976562 21.578125 -18.375 C 20.984375 -17.78125 20.296875 -17.316406 19.515625 -16.984375 C 18.734375 -16.648438 17.890625 -16.484375 16.984375 -16.484375 L 16.046875 -16.484375 L 23.234375 -3 L 25.484375 -3 L 25.484375 0 L 18.484375 0 L 18.484375 -3 L 19.84375 -3 Z M 7.5 -19.484375 L 16.984375 -19.484375 C 17.953125 -19.484375 18.773438 -19.820312 19.453125 -20.5 C 20.140625 -21.1875 20.484375 -22.015625 20.484375 -22.984375 L 20.484375 -29.484375 C 20.484375 -30.453125 20.140625 -31.273438 19.453125 -31.953125 C 18.773438 -32.640625 17.953125 -32.984375 16.984375 -32.984375 L 7.5 -32.984375 Z M 7.5 -19.484375 "/></g></g></g><g fill="#19191e" fill-opacity="1"><g transform="translate(120.859927, 252.592659)"><g><path d="M 7.289062 7.480469 L 8.550781 3.148438 C 9.800781 3.738281 11.101562 3.484375 12.222656 2.390625 C 13.742188 0.90625 13.816406 -1.046875 12.210938 -2.6875 L 8.460938 -6.527344 L 0.867188 0.890625 L 2.488281 2.546875 L 5.097656 -0.00390625 L 6.714844 1.652344 L 5.425781 5.574219 Z M 8.667969 -3.492188 L 10.535156 -1.585938 C 11.363281 -0.734375 11.347656 0.0234375 10.652344 0.699219 C 9.980469 1.359375 9.222656 1.398438 8.371094 0.527344 L 6.507812 -1.378906 Z M 8.667969 -3.492188 "/></g></g></g><g fill="#19191e" fill-opacity="1"><g transform="translate(132.429686, 263.723888)"><g><path d="M 1.023438 0.730469 L 7.664062 5.472656 L 8.808594 3.867188 L 4.0625 0.476562 L 5.433594 -1.441406 L 9.566406 1.507812 L 10.710938 -0.09375 L 6.578125 -3.046875 L 7.9375 -4.949219 L 12.390625 -1.769531 L 13.535156 -3.375 L 7.191406 -7.90625 Z M 1.023438 0.730469 "/></g></g></g><g fill="#19191e" fill-opacity="1"><g transform="translate(144.963806, 272.123581)"><g><path d="M 4.234375 2.3125 C 6.519531 3.421875 8.53125 2.921875 9.503906 0.914062 C 10.375 -0.871094 9.484375 -2.269531 8.039062 -3.34375 L 6.902344 -4.1875 C 5.992188 -4.851562 5.910156 -5.308594 6.164062 -5.832031 C 6.496094 -6.511719 7.148438 -6.542969 7.863281 -6.195312 C 8.746094 -5.765625 9.605469 -4.789062 9.914062 -3.808594 L 11.722656 -4.71875 C 11.152344 -6.109375 10.09375 -7.175781 8.75 -7.828125 C 6.820312 -8.765625 5 -8.523438 4.042969 -6.558594 C 3.246094 -4.917969 3.941406 -3.597656 5.273438 -2.609375 L 6.648438 -1.582031 C 7.496094 -0.972656 7.632812 -0.472656 7.332031 0.144531 C 6.902344 1.023438 6.097656 1.011719 5.199219 0.574219 C 4.140625 0.0585938 3.433594 -0.8125 3.0625 -2.152344 L 1.132812 -1.308594 C 1.472656 0.164062 2.574219 1.503906 4.234375 2.3125 Z M 4.234375 2.3125 "/></g></g></g><g fill="#19191e" fill-opacity="1"><g transform="translate(158.13599, 278.063792)"><g><path d="M 3.296875 0.984375 L 5.527344 1.648438 L 8 -6.640625 L 11.046875 -5.730469 L 11.609375 -7.613281 L 3.296875 -10.089844 L 2.734375 -8.207031 L 5.769531 -7.304688 Z M 3.296875 0.984375 "/></g></g></g><g fill="#19191e" fill-opacity="1"><g transform="translate(171.95659, 281.818523)"><g><path d="M 8.558594 0.992188 L 11.054688 1.285156 L 8.386719 -9.710938 L 5.300781 -10.066406 L 0.1875 0.0234375 L 2.683594 0.3125 L 3.710938 -1.84375 L 8.046875 -1.339844 Z M 4.566406 -3.621094 L 6.5625 -7.789062 L 6.628906 -7.78125 L 7.617188 -3.265625 Z M 4.566406 -3.621094 "/></g></g></g><g fill="#19191e" fill-opacity="1"><g transform="translate(188.371547, 283.237932)"><g><path d="M 5.609375 -0.144531 C 8.675781 -0.359375 10.113281 -2.042969 9.902344 -5.015625 L 9.457031 -11.308594 L 7.117188 -11.144531 L 7.582031 -4.582031 C 7.691406 -3.03125 6.902344 -2.246094 5.46875 -2.144531 C 4.042969 -2.042969 3.164062 -2.710938 3.054688 -4.261719 L 2.589844 -10.824219 L 0.269531 -10.660156 L 0.722656 -4.285156 C 0.925781 -1.378906 2.558594 0.0742188 5.609375 -0.144531 Z M 5.609375 -0.144531 "/></g></g></g><g fill="#19191e" fill-opacity="1"><g transform="translate(204.685884, 281.592375)"><g><path d="M 10.113281 -2.621094 L 6.972656 -5.863281 C 8.105469 -6.65625 8.53125 -7.914062 8.136719 -9.425781 C 7.601562 -11.484375 5.945312 -12.515625 3.71875 -11.9375 L -1.472656 -10.582031 L 1.203125 -0.3125 L 3.445312 -0.898438 L 2.527344 -4.429688 L 4.765625 -5.011719 L 7.53125 -1.949219 Z M 1.269531 -9.261719 L 3.847656 -9.933594 C 5 -10.230469 5.648438 -9.839844 5.890625 -8.902344 C 6.128906 -7.992188 5.789062 -7.316406 4.609375 -7.007812 L 2.03125 -6.335938 Z M 1.269531 -9.261719 "/></g></g></g><g fill="#19191e" fill-opacity="1"><g transform="translate(220.144319, 277.090188)"><g><path d="M 7.796875 -3.664062 L 10.070312 -4.734375 L 2.011719 -12.671875 L -0.800781 -11.351562 L 0.167969 -0.078125 L 2.445312 -1.148438 L 2.183594 -3.523438 L 6.132812 -5.378906 Z M 1.972656 -5.484375 L 1.472656 -10.078125 L 1.53125 -10.105469 L 4.753906 -6.789062 Z M 1.972656 -5.484375 "/></g></g></g><g fill="#19191e" fill-opacity="1"><g transform="translate(234.871779, 269.653626)"><g><path d="M 1.015625 -0.738281 L 2.894531 -2.109375 L -1.332031 -7.910156 L -1.265625 -7.957031 L 6.59375 -4.804688 L 8.605469 -6.269531 L 2.355469 -14.847656 L 0.472656 -13.476562 L 4.722656 -7.648438 L 4.667969 -7.609375 L -3.253906 -10.761719 L -5.234375 -9.316406 Z M 1.015625 -0.738281 "/></g></g></g><g fill="#19191e" fill-opacity="1"><g transform="translate(248.270858, 259.184752)"><g><path d="M 2.378906 -2.488281 L 3.988281 -4.167969 L -2.261719 -10.144531 L -0.0625 -12.445312 L -1.480469 -13.800781 L -7.476562 -7.535156 L -6.058594 -6.175781 L -3.867188 -8.464844 Z M 2.378906 -2.488281 "/></g></g></g><g fill="#19191e" fill-opacity="1"><g transform="translate(114.982183, 158.946887)"><g><path d="M 0.785156 0 L 5.882812 0 L 5.882812 -1.230469 L 2.238281 -1.230469 L 2.238281 -2.707031 L 5.410156 -2.707031 L 5.410156 -3.9375 L 2.238281 -3.9375 L 2.238281 -5.398438 L 5.660156 -5.398438 L 5.660156 -6.632812 L 0.785156 -6.632812 Z M 0.785156 0 "/></g></g></g><g fill="#19191e" fill-opacity="1"><g transform="translate(123.893062, 158.946887)"><g><path d="M 3.011719 0.140625 C 4.597656 0.140625 5.589844 -0.6875 5.589844 -2.082031 C 5.589844 -3.324219 4.710938 -3.867188 3.605469 -4.074219 L 2.734375 -4.238281 C 2.042969 -4.363281 1.871094 -4.597656 1.871094 -4.960938 C 1.871094 -5.433594 2.230469 -5.628906 2.726562 -5.628906 C 3.339844 -5.628906 4.089844 -5.316406 4.53125 -4.847656 L 5.300781 -5.855469 C 4.597656 -6.480469 3.710938 -6.789062 2.777344 -6.789062 C 1.4375 -6.789062 0.480469 -6.15625 0.480469 -4.789062 C 0.480469 -3.648438 1.230469 -3.097656 2.25 -2.90625 L 3.304688 -2.707031 C 3.945312 -2.59375 4.160156 -2.351562 4.160156 -1.921875 C 4.160156 -1.3125 3.703125 -1.097656 3.078125 -1.097656 C 2.34375 -1.097656 1.707031 -1.394531 1.132812 -2.046875 L 0.28125 -1.042969 C 0.871094 -0.308594 1.859375 0.140625 3.011719 0.140625 Z M 3.011719 0.140625 "/></g></g></g><g fill="#19191e" fill-opacity="1"><g transform="translate(132.41975, 158.946887)"><g><path d="M 2.152344 0 L 3.605469 0 L 3.605469 -5.402344 L 5.589844 -5.402344 L 5.589844 -6.632812 L 0.171875 -6.632812 L 0.171875 -5.402344 L 2.152344 -5.402344 Z M 2.152344 0 "/></g></g></g><g fill="#19191e" fill-opacity="1"><g transform="translate(140.825333, 158.946887)"><g><path d="M 0.785156 0 L 3.324219 0 C 5.617188 0 6.660156 -1.195312 6.660156 -3.289062 C 6.660156 -5.382812 5.667969 -6.632812 3.332031 -6.632812 L 0.785156 -6.632812 Z M 2.238281 -1.246094 L 2.238281 -5.390625 L 3.316406 -5.390625 C 4.726562 -5.390625 5.21875 -4.636719 5.21875 -3.332031 C 5.21875 -1.984375 4.683594 -1.246094 3.210938 -1.246094 Z M 2.238281 -1.246094 "/></g></g></g><g fill="#19191e" fill-opacity="1"><g transform="translate(227.126284, 158.946887)"><g><path d="M 1.917969 -1.222656 L 1.917969 -1.320312 C 1.917969 -2.402344 5.117188 -2.335938 5.117188 -4.683594 C 5.117188 -5.929688 4.269531 -6.78125 2.851562 -6.78125 C 1.328125 -6.78125 0.535156 -5.804688 0.488281 -4.378906 L 1.890625 -4.210938 C 1.917969 -5.101562 2.222656 -5.550781 2.839844 -5.550781 C 3.359375 -5.550781 3.683594 -5.246094 3.683594 -4.726562 C 3.683594 -3.019531 0.460938 -3.65625 0.460938 -0.96875 L 0.460938 0 L 5.191406 0 L 5.191406 -1.222656 Z M 1.917969 -1.222656 "/></g></g></g><g fill="#19191e" fill-opacity="1"><g transform="translate(235.406587, 158.946887)"><g><path d="M 2.839844 0.160156 C 4.542969 0.160156 5.285156 -1.339844 5.285156 -3.304688 C 5.285156 -5.289062 4.523438 -6.796875 2.796875 -6.796875 C 1.015625 -6.796875 0.359375 -5.21875 0.359375 -3.328125 C 0.359375 -1.425781 1.035156 0.160156 2.839844 0.160156 Z M 2.808594 -1.121094 C 1.957031 -1.121094 1.796875 -2.097656 1.796875 -3.339844 C 1.796875 -4.535156 1.945312 -5.5 2.789062 -5.5 C 3.625 -5.5 3.792969 -4.527344 3.792969 -3.300781 C 3.792969 -2.117188 3.636719 -1.121094 2.808594 -1.121094 Z M 2.808594 -1.121094 "/></g></g></g><g fill="#19191e" fill-opacity="1"><g transform="translate(243.68689, 158.946887)"><g><path d="M 1.917969 -1.222656 L 1.917969 -1.320312 C 1.917969 -2.402344 5.117188 -2.335938 5.117188 -4.683594 C 5.117188 -5.929688 4.269531 -6.78125 2.851562 -6.78125 C 1.328125 -6.78125 0.535156 -5.804688 0.488281 -4.378906 L 1.890625 -4.210938 C 1.917969 -5.101562 2.222656 -5.550781 2.839844 -5.550781 C 3.359375 -5.550781 3.683594 -5.246094 3.683594 -4.726562 C 3.683594 -3.019531 0.460938 -3.65625 0.460938 -0.96875 L 0.460938 0 L 5.191406 0 L 5.191406 -1.222656 Z M 1.917969 -1.222656 "/></g></g></g><g fill="#19191e" fill-opacity="1"><g transform="translate(251.967194, 158.946887)"><g><path d="M 2.554688 0 L 3.984375 0 L 3.984375 -6.632812 L 2.59375 -6.632812 L 1.042969 -5.6875 L 1.042969 -4.351562 L 2.554688 -5.324219 Z M 2.554688 0 "/></g></g></g><path fill="#19191e" d="M 160.164062 143.554688 C 159.757812 143.464844 159.355469 143.726562 159.269531 144.140625 C 159.1875 144.523438 159.144531 144.917969 159.144531 145.3125 C 159.144531 148.398438 161.632812 150.910156 164.691406 150.910156 L 166.648438 150.910156 L 172.546875 156.039062 C 173.300781 156.691406 174.242188 157.023438 175.1875 157.023438 C 176.054688 157.023438 176.921875 156.746094 177.648438 156.183594 C 177.976562 155.929688 178.039062 155.449219 177.785156 155.113281 C 177.53125 154.78125 177.058594 154.71875 176.726562 154.972656 C 175.78125 155.707031 174.4375 155.667969 173.535156 154.882812 L 168.964844 150.910156 L 181.976562 150.910156 L 181.367188 151.378906 C 181.035156 151.636719 180.972656 152.117188 181.226562 152.449219 C 181.375 152.644531 181.601562 152.75 181.828125 152.75 C 181.988281 152.75 182.148438 152.695312 182.289062 152.589844 L 184.460938 150.910156 L 190.867188 150.910156 C 191.285156 150.910156 191.625 150.566406 191.625 150.144531 C 191.625 149.726562 191.285156 149.382812 190.867188 149.382812 L 164.691406 149.382812 C 162.46875 149.382812 160.65625 147.558594 160.65625 145.3125 C 160.65625 145.027344 160.6875 144.738281 160.746094 144.460938 C 160.835938 144.046875 160.574219 143.640625 160.164062 143.554688 " fill-opacity="1" fill-rule="nonzero"/><g clip-path="url(#id2)"><path fill="#19191e" d="M 213.648438 156.644531 L 213.648438 152.878906 C 213.648438 152.457031 213.308594 152.117188 212.890625 152.117188 C 212.472656 152.117188 212.136719 152.457031 212.136719 152.878906 L 212.136719 156.644531 C 212.136719 158.582031 210.574219 160.15625 208.65625 160.15625 L 166.0625 160.15625 C 164.144531 160.15625 162.582031 158.582031 162.582031 156.644531 L 162.582031 152.878906 C 162.582031 152.457031 162.242188 152.117188 161.824219 152.117188 C 161.410156 152.117188 161.070312 152.457031 161.070312 152.878906 L 161.070312 156.644531 C 161.070312 159.421875 163.308594 161.679688 166.0625 161.679688 L 208.65625 161.679688 C 211.40625 161.679688 213.648438 159.421875 213.648438 156.644531 " fill-opacity="1" fill-rule="nonzero"/></g><path fill="#19191e" d="M 179.328125 152.960938 L 179.03125 153.191406 C 178.699219 153.445312 178.636719 153.925781 178.890625 154.257812 C 179.039062 154.453125 179.265625 154.558594 179.492188 154.558594 C 179.652344 154.558594 179.8125 154.507812 179.953125 154.398438 L 180.25 154.171875 C 180.578125 153.914062 180.640625 153.433594 180.386719 153.101562 C 180.132812 152.765625 179.660156 152.703125 179.328125 152.960938 " fill-opacity="1" fill-rule="nonzero"/><path fill="#19191e" d="M 163.601562 129.679688 C 163.714844 129.742188 163.839844 129.769531 163.960938 129.769531 C 164.230469 129.769531 164.492188 129.625 164.628906 129.371094 C 164.699219 129.242188 164.769531 129.113281 164.84375 128.984375 C 165.050781 128.621094 164.929688 128.152344 164.566406 127.941406 C 164.207031 127.730469 163.742188 127.855469 163.535156 128.222656 C 163.453125 128.359375 163.375 128.5 163.300781 128.644531 C 163.101562 129.011719 163.234375 129.476562 163.601562 129.679688 " fill-opacity="1" fill-rule="nonzero"/><path fill="#19191e" d="M 188.042969 124.960938 C 188.460938 124.960938 188.796875 124.617188 188.796875 124.195312 C 188.796875 123.777344 188.460938 123.433594 188.042969 123.433594 L 187.210938 123.433594 C 186.792969 123.433594 186.457031 123.777344 186.457031 124.195312 C 186.457031 124.617188 186.792969 124.960938 187.210938 124.960938 L 188.042969 124.960938 " fill-opacity="1" fill-rule="nonzero"/><path fill="#19191e" d="M 183.199219 132.273438 C 183.613281 132.273438 183.953125 131.929688 183.953125 131.507812 C 183.953125 131.089844 183.613281 130.746094 183.199219 130.746094 L 182.367188 130.746094 C 181.949219 130.746094 181.609375 131.089844 181.609375 131.507812 C 181.609375 131.929688 181.949219 132.273438 182.367188 132.273438 L 183.199219 132.273438 " fill-opacity="1" fill-rule="nonzero"/><path fill="#19191e" d="M 192.886719 132.273438 C 193.304688 132.273438 193.644531 131.929688 193.644531 131.507812 C 193.644531 131.089844 193.304688 130.746094 192.886719 130.746094 L 192.058594 130.746094 C 191.640625 130.746094 191.300781 131.089844 191.300781 131.507812 C 191.300781 131.929688 191.640625 132.273438 192.058594 132.273438 L 192.886719 132.273438 " fill-opacity="1" fill-rule="nonzero"/><path fill="#19191e" d="M 197.730469 124.960938 C 198.148438 124.960938 198.488281 124.617188 198.488281 124.195312 C 198.488281 123.777344 198.148438 123.433594 197.730469 123.433594 L 196.902344 123.433594 C 196.484375 123.433594 196.144531 123.777344 196.144531 124.195312 C 196.144531 124.617188 196.484375 124.960938 196.902344 124.960938 L 197.730469 124.960938 " fill-opacity="1" fill-rule="nonzero"/><path fill="#19191e" d="M 202.574219 132.273438 C 202.992188 132.273438 203.332031 131.929688 203.332031 131.507812 C 203.332031 131.089844 202.992188 130.746094 202.574219 130.746094 L 201.746094 130.746094 C 201.328125 130.746094 200.988281 131.089844 200.988281 131.507812 C 200.988281 131.929688 201.328125 132.273438 201.746094 132.273438 L 202.574219 132.273438 " fill-opacity="1" fill-rule="nonzero"/><path fill="#19191e" d="M 178.335938 124.960938 C 178.753906 124.960938 179.089844 124.617188 179.089844 124.195312 C 179.089844 123.777344 178.753906 123.433594 178.335938 123.433594 L 177.507812 123.433594 C 177.089844 123.433594 176.75 123.777344 176.75 124.195312 C 176.75 124.617188 177.089844 124.960938 177.507812 124.960938 L 178.335938 124.960938 " fill-opacity="1" fill-rule="nonzero"/><path fill="#19191e" d="M 173.472656 132.273438 C 173.890625 132.273438 174.230469 131.929688 174.230469 131.507812 C 174.230469 131.089844 173.890625 130.746094 173.472656 130.746094 L 172.644531 130.746094 C 172.226562 130.746094 171.886719 131.089844 171.886719 131.507812 C 171.886719 131.929688 172.226562 132.273438 172.644531 132.273438 L 173.472656 132.273438 " fill-opacity="1" fill-rule="nonzero"/><g clip-path="url(#id3)"><path fill="#19191e" d="M 160.046875 138.273438 L 214.671875 138.273438 C 215.292969 138.273438 215.792969 138.78125 215.792969 139.40625 C 215.792969 139.949219 215.417969 140.417969 214.898438 140.515625 C 214.046875 140.675781 213.285156 140.964844 212.507812 141.421875 C 212.050781 141.695312 211.640625 141.992188 211.242188 142.28125 C 210.042969 143.152344 209.007812 143.902344 206.820312 143.902344 C 204.632812 143.902344 203.597656 143.152344 202.398438 142.28125 C 201.164062 141.382812 199.765625 140.371094 197.089844 140.371094 C 194.421875 140.371094 192.972656 141.378906 191.699219 142.269531 C 190.476562 143.121094 189.425781 143.859375 187.328125 143.898438 C 187.328125 143.898438 187.292969 143.902344 187.257812 143.902344 C 187.238281 143.902344 187.203125 143.898438 187.183594 143.898438 C 185.113281 143.859375 184.105469 143.125 182.9375 142.277344 C 181.703125 141.382812 180.304688 140.371094 177.628906 140.371094 C 174.949219 140.371094 173.554688 141.382812 172.320312 142.28125 C 171.121094 143.152344 170.085938 143.902344 167.898438 143.902344 C 165.707031 143.902344 164.671875 143.152344 163.472656 142.28125 C 163.078125 141.992188 162.667969 141.695312 162.207031 141.421875 C 161.433594 140.964844 160.671875 140.675781 159.820312 140.515625 C 159.300781 140.417969 158.921875 139.949219 158.921875 139.40625 C 158.921875 138.78125 159.425781 138.273438 160.046875 138.273438 Z M 159.542969 142.015625 C 160.21875 142.140625 160.824219 142.371094 161.445312 142.738281 C 161.839844 142.972656 162.207031 143.238281 162.589844 143.519531 C 163.824219 144.414062 165.222656 145.429688 167.898438 145.429688 C 170.574219 145.429688 171.972656 144.414062 173.203125 143.519531 C 174.402344 142.648438 175.4375 141.894531 177.628906 141.894531 C 179.816406 141.894531 180.851562 142.648438 182.054688 143.515625 C 183.253906 144.386719 184.613281 145.375 187.140625 145.425781 C 187.140625 145.425781 187.226562 145.425781 187.257812 145.425781 C 187.296875 145.425781 187.371094 145.425781 187.375 145.425781 C 189.910156 145.375 191.316406 144.390625 192.558594 143.523438 C 193.8125 142.648438 194.894531 141.894531 197.089844 141.894531 C 199.277344 141.894531 200.316406 142.648438 201.511719 143.519531 C 202.746094 144.414062 204.144531 145.429688 206.820312 145.429688 C 206.828125 145.429688 206.839844 145.429688 206.847656 145.429688 C 206.84375 147.273438 206.839844 149.117188 206.84375 150.546875 C 206.84375 151.867188 206.84375 153.148438 206.84375 153.214844 L 206.84375 156.25 C 206.84375 156.582031 206.714844 156.886719 206.484375 157.121094 C 206.25 157.351562 205.945312 157.476562 205.617188 157.46875 C 204.964844 157.457031 204.433594 156.878906 204.433594 156.183594 L 204.433594 154.945312 C 204.433594 153.570312 203.324219 152.449219 201.957031 152.449219 L 201.753906 152.449219 C 200.386719 152.449219 199.277344 153.570312 199.277344 154.945312 C 199.277344 156.105469 198.34375 157.046875 197.195312 157.046875 C 196.046875 157.046875 195.113281 156.105469 195.113281 154.945312 L 195.113281 145.238281 C 195.113281 144.816406 194.773438 144.476562 194.355469 144.476562 C 193.9375 144.476562 193.601562 144.816406 193.601562 145.238281 L 193.601562 154.945312 C 193.601562 156.945312 195.210938 158.574219 197.195312 158.574219 C 199.179688 158.574219 200.789062 156.945312 200.789062 154.945312 C 200.789062 154.410156 201.222656 153.976562 201.753906 153.976562 L 201.957031 153.976562 C 202.488281 153.976562 202.921875 154.410156 202.921875 154.945312 L 202.921875 156.183594 C 202.921875 157.707031 204.117188 158.964844 205.589844 158.992188 C 205.605469 158.992188 205.621094 158.992188 205.640625 158.992188 C 206.355469 158.992188 207.03125 158.714844 207.542969 158.207031 C 208.070312 157.6875 208.355469 156.992188 208.355469 156.25 L 208.355469 153.410156 C 208.375 153.347656 208.347656 151.441406 208.359375 145.300781 C 210.078125 145 211.15625 144.222656 212.125 143.519531 C 212.484375 143.257812 212.824219 143.011719 213.1875 142.792969 C 213.75 143.507812 214.058594 144.390625 214.058594 145.3125 C 214.058594 147.238281 212.707031 148.914062 210.839844 149.300781 C 210.429688 149.386719 210.167969 149.789062 210.25 150.199219 C 210.324219 150.5625 210.640625 150.8125 210.992188 150.8125 C 211.042969 150.8125 211.09375 150.804688 211.144531 150.796875 C 213.710938 150.265625 215.574219 147.960938 215.574219 145.3125 C 215.574219 144.175781 215.230469 143.078125 214.601562 142.152344 C 214.789062 142.097656 214.976562 142.050781 215.175781 142.015625 C 216.410156 141.78125 217.304688 140.683594 217.304688 139.40625 C 217.304688 137.941406 216.125 136.75 214.671875 136.75 L 214.101562 136.75 C 213.703125 126.855469 205.605469 118.929688 195.703125 118.929688 L 179.488281 118.929688 C 174.109375 118.929688 169.015625 121.292969 165.507812 125.414062 C 165.238281 125.734375 165.273438 126.214844 165.589844 126.488281 C 165.90625 126.761719 166.382812 126.726562 166.65625 126.40625 C 169.875 122.625 174.550781 120.457031 179.488281 120.457031 L 195.703125 120.457031 C 204.769531 120.457031 212.191406 127.699219 212.589844 136.75 L 162.601562 136.75 C 162.664062 135.28125 162.910156 133.835938 163.34375 132.441406 C 163.464844 132.039062 163.242188 131.609375 162.84375 131.484375 C 162.445312 131.359375 162.023438 131.585938 161.898438 131.988281 C 161.421875 133.527344 161.152344 135.125 161.085938 136.75 L 160.046875 136.75 C 158.59375 136.75 157.410156 137.941406 157.410156 139.40625 C 157.410156 140.683594 158.308594 141.78125 159.542969 142.015625 " fill-opacity="1" fill-rule="nonzero"/></g><g fill="#19191e" fill-opacity="1"><g transform="translate(146.151479, 240.510059)"><g><path d="M 0.863281 0 L 2.460938 0 L 2.460938 -2.972656 L 5.777344 -2.972656 L 5.777344 -4.328125 L 2.460938 -4.328125 L 2.460938 -5.933594 L 6.234375 -5.933594 L 6.234375 -7.289062 L 0.863281 -7.289062 Z M 0.863281 0 "/></g></g></g><g fill="#19191e" fill-opacity="1"><g transform="translate(155.583343, 240.510059)"><g><path d="M 5.917969 0 L 7.640625 0 L 4.953125 -7.289062 L 2.816406 -7.289062 L 0.128906 0 L 1.855469 0 L 2.386719 -1.550781 L 5.382812 -1.550781 Z M 2.828125 -2.832031 L 3.859375 -5.835938 L 3.90625 -5.835938 L 4.9375 -2.832031 Z M 2.828125 -2.832031 "/></g></g></g><g fill="#19191e" fill-opacity="1"><g transform="translate(166.263712, 240.510059)"><g><path d="M 3.308594 0.15625 C 5.054688 0.15625 6.144531 -0.757812 6.144531 -2.289062 C 6.144531 -3.652344 5.175781 -4.25 3.960938 -4.480469 L 3.007812 -4.660156 C 2.246094 -4.796875 2.054688 -5.054688 2.054688 -5.453125 C 2.054688 -5.972656 2.449219 -6.1875 2.996094 -6.1875 C 3.671875 -6.1875 4.492188 -5.84375 4.980469 -5.328125 L 5.824219 -6.433594 C 5.054688 -7.125 4.082031 -7.464844 3.050781 -7.464844 C 1.578125 -7.464844 0.527344 -6.765625 0.527344 -5.265625 C 0.527344 -4.011719 1.355469 -3.40625 2.472656 -3.195312 L 3.628906 -2.972656 C 4.335938 -2.851562 4.570312 -2.585938 4.570312 -2.113281 C 4.570312 -1.441406 4.070312 -1.207031 3.382812 -1.207031 C 2.574219 -1.207031 1.878906 -1.53125 1.242188 -2.25 L 0.308594 -1.148438 C 0.960938 -0.339844 2.042969 0.15625 3.308594 0.15625 Z M 3.308594 0.15625 "/></g></g></g><g fill="#19191e" fill-opacity="1"><g transform="translate(175.635905, 240.510059)"><g><path d="M 2.363281 0 L 3.960938 0 L 3.960938 -5.941406 L 6.144531 -5.941406 L 6.144531 -7.289062 L 0.1875 -7.289062 L 0.1875 -5.941406 L 2.363281 -5.941406 Z M 2.363281 0 "/></g></g></g><g fill="#19191e" fill-opacity="1"><g transform="translate(184.874985, 240.510059)"><g/></g></g><g fill="#19191e" fill-opacity="1"><g transform="translate(190.313471, 240.510059)"><g><path d="M 0.863281 0 L 2.460938 0 L 2.460938 -2.972656 L 5.777344 -2.972656 L 5.777344 -4.328125 L 2.460938 -4.328125 L 2.460938 -5.933594 L 6.234375 -5.933594 L 6.234375 -7.289062 L 0.863281 -7.289062 Z M 0.863281 0 "/></g></g></g><g fill="#19191e" fill-opacity="1"><g transform="translate(199.745335, 240.510059)"><g><path d="M 3.878906 0.175781 C 6.007812 0.175781 7.351562 -1.144531 7.351562 -3.644531 C 7.351562 -6.144531 6.007812 -7.464844 3.878906 -7.464844 C 1.734375 -7.464844 0.425781 -6.144531 0.425781 -3.644531 C 0.425781 -1.144531 1.734375 0.175781 3.878906 0.175781 Z M 3.878906 -1.1875 C 2.628906 -1.1875 2.015625 -2.113281 2.015625 -3.644531 C 2.015625 -5.175781 2.628906 -6.101562 3.878906 -6.101562 C 5.117188 -6.101562 5.765625 -5.175781 5.765625 -3.644531 C 5.765625 -2.113281 5.117188 -1.1875 3.878906 -1.1875 Z M 3.878906 -1.1875 "/></g></g></g><g fill="#19191e" fill-opacity="1"><g transform="translate(210.425704, 240.510059)"><g><path d="M 3.878906 0.175781 C 6.007812 0.175781 7.351562 -1.144531 7.351562 -3.644531 C 7.351562 -6.144531 6.007812 -7.464844 3.878906 -7.464844 C 1.734375 -7.464844 0.425781 -6.144531 0.425781 -3.644531 C 0.425781 -1.144531 1.734375 0.175781 3.878906 0.175781 Z M 3.878906 -1.1875 C 2.628906 -1.1875 2.015625 -2.113281 2.015625 -3.644531 C 2.015625 -5.175781 2.628906 -6.101562 3.878906 -6.101562 C 5.117188 -6.101562 5.765625 -5.175781 5.765625 -3.644531 C 5.765625 -2.113281 5.117188 -1.1875 3.878906 -1.1875 Z M 3.878906 -1.1875 "/></g></g></g><g fill="#19191e" fill-opacity="1"><g transform="translate(221.106072, 240.510059)"><g><path d="M 0.863281 0 L 3.652344 0 C 6.171875 0 7.320312 -1.3125 7.320312 -3.617188 C 7.320312 -5.917969 6.230469 -7.289062 3.664062 -7.289062 L 0.863281 -7.289062 Z M 2.460938 -1.367188 L 2.460938 -5.925781 L 3.644531 -5.925781 C 5.195312 -5.925781 5.738281 -5.09375 5.738281 -3.664062 C 5.738281 -2.179688 5.148438 -1.367188 3.53125 -1.367188 Z M 2.460938 -1.367188 "/></g></g></g></svg>